<svg width="841" height="202" viewBox="0 0 841 202" fill="none" xmlns="http://www.w3.org/2000/svg">
<g clip-path="url(#clip0_8_3)">
<mask id="path-1-inside-1_8_3" fill="white">
<path d="M119.802 26.1529C116.548 38.2263 109.842 48.874 100.646 56.5674C91.4505 64.2608 80.2378 68.6043 68.618 68.9743C56.9981 69.3442 45.5687 65.7216 35.9705 58.6266C26.3723 51.5315 19.099 41.3289 15.1947 29.4833L67 9.5L119.802 26.1529Z"/>
</mask>
<path d="M119.802 26.1529C116.548 38.2263 109.842 48.874 100.646 56.5674C91.4505 64.2608 80.2378 68.6043 68.618 68.9743C56.9981 69.3442 45.5687 65.7216 35.9705 58.6266C26.3723 51.5315 19.099 41.3289 15.1947 29.4833L67 9.5L119.802 26.1529Z" fill="#22C55E" stroke="#22C55E" stroke-width="18" mask="url(#path-1-inside-1_8_3)"/>
<path d="M71.254 164.57C62.6713 164.57 54.769 163.157 47.547 160.331C40.325 157.505 34.045 153.58 28.707 148.556C23.369 143.427 19.2347 137.461 16.304 130.658C13.3733 123.75 11.908 116.214 11.908 108.05C11.908 99.886 13.3733 92.4023 16.304 85.599C19.2347 78.691 23.369 72.725 28.707 67.701C34.045 62.5723 40.325 58.595 47.547 55.769C54.769 52.943 62.619 51.53 71.097 51.53C79.6797 51.53 87.5297 52.943 94.647 55.769C101.869 58.595 108.149 62.52 113.487 67.544C118.825 72.568 122.959 78.534 125.89 85.442C128.821 92.35 130.286 99.886 130.286 108.05C130.286 116.214 128.821 123.75 125.89 130.658C122.959 137.566 118.825 143.532 113.487 148.556C108.149 153.58 101.869 157.505 94.647 160.331C87.5297 163.157 79.732 164.57 71.254 164.57ZM107.05 187.021C103.177 187.021 99.4093 186.55 95.746 185.608C92.1873 184.771 88.6287 183.305 85.07 181.212C81.616 179.223 78.005 176.554 74.237 173.205C70.469 169.96 66.3347 165.931 61.834 161.116L83.5 155.464C86.4307 159.337 89.2043 162.424 91.821 164.727C94.5423 167.134 97.159 168.861 99.671 169.908C102.183 170.955 104.8 171.478 107.521 171.478C114.743 171.478 121.023 168.547 126.361 162.686L135.781 173.99C128.454 182.677 118.877 187.021 107.05 187.021ZM71.097 146.672C76.6443 146.672 81.773 145.73 86.483 143.846C91.193 141.962 95.275 139.293 98.729 135.839C102.183 132.28 104.852 128.146 106.736 123.436C108.725 118.726 109.719 113.597 109.719 108.05C109.719 102.398 108.725 97.2693 106.736 92.664C104.852 87.954 102.183 83.872 98.729 80.418C95.275 76.8593 91.193 74.138 86.483 72.254C81.773 70.37 76.6443 69.428 71.097 69.428C65.5497 69.428 60.421 70.37 55.711 72.254C51.001 74.138 46.919 76.8593 43.465 80.418C40.011 83.872 37.2897 87.954 35.301 92.664C33.417 97.2693 32.475 102.398 32.475 108.05C32.475 113.597 33.417 118.726 35.301 123.436C37.2897 128.146 40.011 132.28 43.465 135.839C46.919 139.293 51.001 141.962 55.711 143.846C60.421 145.73 65.5497 146.672 71.097 146.672Z" fill="#22C55E"/>
<path d="M8.67503 57.6555L37.2405 50.5132L29.1431 78.8228L8.67503 57.6555Z" fill="#22C55E"/>
<path d="M126.241 57.4207L105.421 78.2414L97.7998 49.7998L126.241 57.4207Z" fill="#22C55E"/>
<path d="M186.292 160L154.066 45.8182H176.312L196.885 129.726H197.944L219.911 45.8182H240.149L262.171 129.782H263.175L283.748 45.8182H305.993L273.768 160H253.362L230.504 79.8832H229.612L206.697 160H186.292ZM319.443 160V74.3636H339.626V160H319.443ZM329.59 62.2095C326.394 62.2095 323.643 61.1502 321.339 59.0316C319.034 56.8758 317.882 54.2926 317.882 51.282C317.882 48.2341 319.034 45.6509 321.339 43.5323C323.643 41.3765 326.394 40.2986 329.59 40.2986C332.824 40.2986 335.574 41.3765 337.842 43.5323C340.146 45.6509 341.298 48.2341 341.298 51.282C341.298 54.2926 340.146 56.8758 337.842 59.0316C335.574 61.1502 332.824 62.2095 329.59 62.2095ZM428.064 96.9993L409.665 99.0064C409.145 97.148 408.234 95.401 406.933 93.7656C405.67 92.1302 403.96 90.8107 401.804 89.8072C399.648 88.8036 397.009 88.3018 393.887 88.3018C389.687 88.3018 386.156 89.2125 383.294 91.0337C380.469 92.855 379.076 95.2152 379.113 98.1143C379.076 100.605 379.986 102.63 381.845 104.191C383.74 105.752 386.862 107.035 391.211 108.038L405.818 111.161C413.921 112.907 419.942 115.676 423.882 119.468C427.859 123.259 429.866 128.221 429.904 134.354C429.866 139.743 428.287 144.501 425.165 148.626C422.08 152.715 417.787 155.911 412.286 158.216C406.785 160.52 400.466 161.673 393.33 161.673C382.848 161.673 374.411 159.48 368.018 155.094C361.625 150.671 357.815 144.519 356.589 136.64L376.269 134.744C377.161 138.609 379.057 141.527 381.956 143.497C384.855 145.467 388.628 146.452 393.274 146.452C398.069 146.452 401.916 145.467 404.815 143.497C407.751 141.527 409.219 139.093 409.219 136.194C409.219 133.74 408.271 131.715 406.376 130.116C404.517 128.518 401.618 127.292 397.678 126.437L383.071 123.37C374.857 121.661 368.78 118.78 364.84 114.729C360.9 110.64 358.949 105.474 358.986 99.2294C358.949 93.9515 360.38 89.3797 363.279 85.5142C366.215 81.6115 370.285 78.6009 375.489 76.4822C380.73 74.3265 386.769 73.2486 393.608 73.2486C403.644 73.2486 411.542 75.3858 417.303 79.6602C423.102 83.9345 426.689 89.7143 428.064 96.9993ZM484.458 161.673C475.872 161.673 468.457 159.888 462.212 156.32C456.005 152.715 451.229 147.623 447.884 141.044C444.539 134.428 442.866 126.641 442.866 117.684C442.866 108.875 444.539 101.144 447.884 94.4904C451.266 87.8001 455.987 82.5965 462.045 78.8796C468.104 75.1256 475.221 73.2486 483.398 73.2486C488.676 73.2486 493.657 74.1035 498.34 75.8132C503.061 77.4858 507.223 80.0876 510.829 83.6186C514.471 87.1496 517.333 91.647 519.415 97.1108C521.496 102.537 522.537 109.005 522.537 116.513V122.701H452.344V109.098H503.191C503.154 105.232 502.317 101.794 500.682 98.7834C499.046 95.7356 496.761 93.3382 493.824 91.5913C490.925 89.8443 487.543 88.9709 483.677 88.9709C479.551 88.9709 475.928 89.9744 472.805 91.9815C469.683 93.9515 467.249 96.5533 465.502 99.7869C463.792 102.983 462.919 106.496 462.881 110.324V122.2C462.881 127.18 463.792 131.455 465.613 135.023C467.435 138.554 469.981 141.267 473.251 143.163C476.522 145.021 480.351 145.95 484.737 145.95C487.673 145.95 490.33 145.541 492.709 144.724C495.088 143.869 497.151 142.624 498.898 140.988C500.645 139.353 501.964 137.327 502.856 134.911L521.701 137.03C520.511 142.01 518.244 146.359 514.899 150.076C511.591 153.756 507.354 156.618 502.187 158.662C497.021 160.669 491.111 161.673 484.458 161.673Z" fill="#1C1917"/>
<path d="M540.503 160V45.8182H613.651V63.1573H561.188V94.1559H608.633V111.495H561.188V160H540.503ZM632.9 160H610.822L651.019 45.8182H676.554L716.808 160H694.73L664.233 69.2344H663.341L632.9 160ZM633.624 115.23H693.838V131.845H633.624V115.23ZM769.02 121.642H787.753L798.848 136.026L806.765 145.393L825.777 169.812H805.706L792.771 153.421L787.251 145.616L769.02 121.642ZM828.509 102.909C828.509 115.212 826.204 125.749 821.595 134.521C817.023 143.256 810.779 149.946 802.862 154.592C794.982 159.238 786.043 161.561 776.045 161.561C766.047 161.561 757.089 159.238 749.172 154.592C741.292 149.909 735.048 143.2 730.439 134.465C725.868 125.693 723.582 115.175 723.582 102.909C723.582 90.6063 725.868 80.0876 730.439 71.353C735.048 62.5812 741.292 55.8723 749.172 51.2262C757.089 46.5801 766.047 44.2571 776.045 44.2571C786.043 44.2571 794.982 46.5801 802.862 51.2262C810.779 55.8723 817.023 62.5812 821.595 71.353C826.204 80.0876 828.509 90.6063 828.509 102.909ZM807.713 102.909C807.713 94.2488 806.356 86.9452 803.643 80.9982C800.967 75.0141 797.25 70.4981 792.492 67.4503C787.735 64.3653 782.252 62.8228 776.045 62.8228C769.838 62.8228 764.356 64.3653 759.598 67.4503C754.84 70.4981 751.105 75.0141 748.392 80.9982C745.716 86.9452 744.377 94.2488 744.377 102.909C744.377 111.569 745.716 118.892 748.392 124.876C751.105 130.823 754.84 135.339 759.598 138.424C764.356 141.471 769.838 142.995 776.045 142.995C782.252 142.995 787.735 141.471 792.492 138.424C797.25 135.339 800.967 130.823 803.643 124.876C806.356 118.892 807.713 111.569 807.713 102.909Z" fill="#22C55E"/>
<circle cx="36" cy="61" r="10" fill="#22C55E"/>
<circle cx="97.5" cy="58.5" r="7.5" fill="#22C55E"/>
</g>
<defs>
<clipPath id="clip0_8_3">
<rect width="841" height="202" fill="white"/>
</clipPath>
</defs>
</svg>
