<svg width="841" height="202" viewBox="0 0 841 202" fill="none" xmlns="http://www.w3.org/2000/svg">
<g clip-path="url(#clip0_8_3)">
<mask id="path-1-inside-1_8_3" fill="white">
<path d="M115.802 26.1529C112.548 38.2263 105.842 48.874 96.6464 56.5674C87.4505 64.2608 76.2378 68.6043 64.618 68.9742C52.9981 69.3442 41.5687 65.7216 31.9705 58.6266C22.3723 51.5315 15.099 41.3289 11.1947 29.4833L63 9.5L115.802 26.1529Z"/>
</mask>
<path d="M115.802 26.1529C112.548 38.2263 105.842 48.874 96.6464 56.5674C87.4505 64.2608 76.2378 68.6043 64.618 68.9742C52.9981 69.3442 41.5687 65.7216 31.9705 58.6266C22.3723 51.5315 15.099 41.3289 11.1947 29.4833L63 9.5L115.802 26.1529Z" fill="#8D45FF" stroke="#8D45FF" stroke-width="18" mask="url(#path-1-inside-1_8_3)"/>
<path d="M67.254 164.57C58.6713 164.57 50.769 163.157 43.547 160.331C36.325 157.505 30.045 153.58 24.707 148.556C19.369 143.427 15.2347 137.461 12.304 130.658C9.37333 123.75 7.908 116.214 7.908 108.05C7.908 99.886 9.37333 92.4023 12.304 85.599C15.2347 78.691 19.369 72.725 24.707 67.701C30.045 62.5723 36.325 58.595 43.547 55.769C50.769 52.943 58.619 51.53 67.097 51.53C75.6797 51.53 83.5297 52.943 90.647 55.769C97.869 58.595 104.149 62.52 109.487 67.544C114.825 72.568 118.959 78.534 121.89 85.442C124.821 92.35 126.286 99.886 126.286 108.05C126.286 116.214 124.821 123.75 121.89 130.658C118.959 137.566 114.825 143.532 109.487 148.556C104.149 153.58 97.869 157.505 90.647 160.331C83.5297 163.157 75.732 164.57 67.254 164.57ZM103.05 187.021C99.1773 187.021 95.4093 186.55 91.746 185.608C88.1873 184.771 84.6287 183.305 81.07 181.212C77.616 179.223 74.005 176.554 70.237 173.205C66.469 169.96 62.3347 165.931 57.834 161.116L79.5 155.464C82.4307 159.337 85.2043 162.424 87.821 164.727C90.5423 167.134 93.159 168.861 95.671 169.908C98.183 170.955 100.8 171.478 103.521 171.478C110.743 171.478 117.023 168.547 122.361 162.686L131.781 173.99C124.454 182.677 114.877 187.021 103.05 187.021ZM67.097 146.672C72.6443 146.672 77.773 145.73 82.483 143.846C87.193 141.962 91.275 139.293 94.729 135.839C98.183 132.28 100.852 128.146 102.736 123.436C104.725 118.726 105.719 113.597 105.719 108.05C105.719 102.398 104.725 97.2693 102.736 92.664C100.852 87.954 98.183 83.872 94.729 80.418C91.275 76.8593 87.193 74.138 82.483 72.254C77.773 70.37 72.6443 69.428 67.097 69.428C61.5497 69.428 56.421 70.37 51.711 72.254C47.001 74.138 42.919 76.8593 39.465 80.418C36.011 83.872 33.2897 87.954 31.301 92.664C29.417 97.2693 28.475 102.398 28.475 108.05C28.475 113.597 29.417 118.726 31.301 123.436C33.2897 128.146 36.011 132.28 39.465 135.839C42.919 139.293 47.001 141.962 51.711 143.846C56.421 145.73 61.5497 146.672 67.097 146.672Z" fill="#8D45FF"/>
<path d="M4.67503 57.6555L33.2405 50.5132L25.1431 78.8228L4.67503 57.6555Z" fill="#8D45FF"/>
<path d="M122.241 57.4207L101.421 78.2414L93.7998 49.7998L122.241 57.4207Z" fill="#8D45FF"/>
<path d="M182.292 160L150.066 45.8182H172.312L192.885 129.726H193.944L215.911 45.8182H236.149L258.171 129.782H259.175L279.748 45.8182H301.993L269.768 160H249.362L226.504 79.8832H225.612L202.697 160H182.292ZM315.443 160V74.3636H335.626V160H315.443ZM325.59 62.2095C322.394 62.2095 319.643 61.1502 317.339 59.0316C315.034 56.8758 313.882 54.2926 313.882 51.282C313.882 48.2341 315.034 45.6509 317.339 43.5323C319.643 41.3765 322.394 40.2986 325.59 40.2986C328.824 40.2986 331.574 41.3765 333.842 43.5323C336.146 45.6509 337.298 48.2341 337.298 51.282C337.298 54.2926 336.146 56.8758 333.842 59.0316C331.574 61.1502 328.824 62.2095 325.59 62.2095ZM424.064 96.9993L405.665 99.0064C405.145 97.148 404.234 95.401 402.933 93.7656C401.67 92.1302 399.96 90.8107 397.804 89.8072C395.648 88.8036 393.009 88.3018 389.887 88.3018C385.687 88.3018 382.156 89.2125 379.294 91.0337C376.469 92.855 375.076 95.2152 375.113 98.1143C375.076 100.605 375.986 102.63 377.845 104.191C379.74 105.752 382.862 107.035 387.211 108.038L401.818 111.161C409.921 112.907 415.942 115.676 419.882 119.468C423.859 123.259 425.866 128.221 425.904 134.354C425.866 139.743 424.287 144.501 421.165 148.626C418.08 152.715 413.787 155.911 408.286 158.216C402.785 160.52 396.466 161.673 389.33 161.673C378.848 161.673 370.411 159.48 364.018 155.094C357.625 150.671 353.815 144.519 352.589 136.64L372.269 134.744C373.161 138.609 375.057 141.527 377.956 143.497C380.855 145.467 384.628 146.452 389.274 146.452C394.069 146.452 397.916 145.467 400.815 143.497C403.751 141.527 405.219 139.093 405.219 136.194C405.219 133.74 404.271 131.715 402.376 130.116C400.517 128.518 397.618 127.292 393.678 126.437L379.071 123.37C370.857 121.661 364.78 118.78 360.84 114.729C356.9 110.64 354.949 105.474 354.986 99.2294C354.949 93.9515 356.38 89.3797 359.279 85.5142C362.215 81.6115 366.285 78.6009 371.489 76.4822C376.73 74.3265 382.769 73.2486 389.608 73.2486C399.644 73.2486 407.542 75.3858 413.303 79.6602C419.102 83.9345 422.689 89.7143 424.064 96.9993ZM480.458 161.673C471.872 161.673 464.457 159.888 458.212 156.32C452.005 152.715 447.229 147.623 443.884 141.044C440.539 134.428 438.866 126.641 438.866 117.684C438.866 108.875 440.539 101.144 443.884 94.4904C447.266 87.8001 451.987 82.5965 458.045 78.8796C464.104 75.1256 471.221 73.2486 479.398 73.2486C484.676 73.2486 489.657 74.1035 494.34 75.8132C499.061 77.4858 503.223 80.0876 506.829 83.6186C510.471 87.1496 513.333 91.647 515.415 97.1108C517.496 102.537 518.537 109.005 518.537 116.513V122.701H448.344V109.098H499.191C499.154 105.232 498.317 101.794 496.682 98.7834C495.046 95.7356 492.761 93.3382 489.824 91.5913C486.925 89.8443 483.543 88.9709 479.677 88.9709C475.551 88.9709 471.928 89.9744 468.805 91.9815C465.683 93.9515 463.249 96.5533 461.502 99.7869C459.792 102.983 458.919 106.496 458.881 110.324V122.2C458.881 127.18 459.792 131.455 461.613 135.023C463.435 138.554 465.981 141.267 469.251 143.163C472.522 145.021 476.351 145.95 480.737 145.95C483.673 145.95 486.33 145.541 488.709 144.724C491.088 143.869 493.151 142.624 494.898 140.988C496.645 139.353 497.964 137.327 498.856 134.911L517.701 137.03C516.511 142.01 514.244 146.359 510.899 150.076C507.591 153.756 503.354 156.618 498.187 158.662C493.021 160.669 487.111 161.673 480.458 161.673Z" fill="#2A2A2A"/>
<path d="M536.503 160V45.8182H609.651V63.1573H557.188V94.1559H604.633V111.495H557.188V160H536.503ZM628.9 160H606.822L647.019 45.8182H672.554L712.808 160H690.73L660.233 69.2344H659.341L628.9 160ZM629.624 115.23H689.838V131.845H629.624V115.23ZM765.02 121.642H783.753L794.848 136.026L802.765 145.393L821.777 169.812H801.706L788.771 153.421L783.251 145.616L765.02 121.642ZM824.509 102.909C824.509 115.212 822.204 125.749 817.595 134.521C813.023 143.256 806.779 149.946 798.862 154.592C790.982 159.238 782.043 161.561 772.045 161.561C762.047 161.561 753.089 159.238 745.172 154.592C737.292 149.909 731.048 143.2 726.439 134.465C721.868 125.693 719.582 115.175 719.582 102.909C719.582 90.6063 721.868 80.0876 726.439 71.353C731.048 62.5812 737.292 55.8723 745.172 51.2262C753.089 46.5801 762.047 44.2571 772.045 44.2571C782.043 44.2571 790.982 46.5801 798.862 51.2262C806.779 55.8723 813.023 62.5812 817.595 71.353C822.204 80.0876 824.509 90.6063 824.509 102.909ZM803.713 102.909C803.713 94.2488 802.356 86.9452 799.643 80.9982C796.967 75.0141 793.25 70.4981 788.492 67.4503C783.735 64.3653 778.252 62.8228 772.045 62.8228C765.838 62.8228 760.356 64.3653 755.598 67.4503C750.84 70.4981 747.105 75.0141 744.392 80.9982C741.716 86.9452 740.377 94.2488 740.377 102.909C740.377 111.569 741.716 118.892 744.392 124.876C747.105 130.823 750.84 135.339 755.598 138.424C760.356 141.471 765.838 142.995 772.045 142.995C778.252 142.995 783.735 141.471 788.492 138.424C793.25 135.339 796.967 130.823 799.643 124.876C802.356 118.892 803.713 111.569 803.713 102.909Z" fill="#8D45FF"/>
<circle cx="32" cy="61" r="10" fill="#8D45FF"/>
<circle cx="93.5" cy="58.5" r="7.5" fill="#8D45FF"/>
</g>
<defs>
<clipPath id="clip0_8_3">
<rect width="841" height="202" fill="white"/>
</clipPath>
</defs>
</svg>
