<svg width="547" height="319" viewBox="0 0 547 319" fill="none" xmlns="http://www.w3.org/2000/svg">
<mask id="mask0_105_20078" style="mask-type:luminance" maskUnits="userSpaceOnUse" x="161" y="47" width="226" height="226">
<path d="M353.378 239.322C397.362 195.339 397.356 124.022 353.366 80.0313C309.375 36.0409 238.058 36.0353 194.075 80.0188C150.091 124.002 150.097 195.319 194.087 239.31C238.078 283.3 309.395 283.306 353.378 239.322Z" fill="white"/>
</mask>
<g mask="url(#mask0_105_20078)">
<path d="M123.496 193.894L123.496 160.439L157.051 160.442L157.045 126.795L190.499 126.794L190.497 93.4387L223.948 93.4413L223.945 60.0724L257.479 60.075L257.473 26.5104L291.024 26.5165L291.021 -7.3261L309.521 -7.32464L309.522 -4.18065L294.166 -4.18185L294.168 29.6608L260.617 29.6547L260.623 63.2193L227.09 63.2166L227.092 96.5856L193.641 96.5829L193.644 129.938L160.189 129.939L160.192 163.582L126.641 163.583L126.64 197.038L108.304 197.037L108.304 193.893L123.496 193.894Z" fill="white"/>
<path d="M139.701 210.099L139.698 176.641L173.253 176.644L173.247 142.997L206.701 142.996L206.699 109.641L240.154 109.647L240.151 76.2777L273.681 76.2769L273.679 42.7158L307.226 42.7184L307.227 8.87923L325.723 8.87725L325.724 12.0212L310.371 12.0235L310.37 45.8627L276.823 45.86L276.825 79.4212L243.295 79.422L243.298 112.791L209.843 112.785L209.846 146.14L176.391 146.141L176.397 179.788L142.843 179.785L142.845 213.243L124.507 213.238L124.506 210.094L139.701 210.099Z" fill="white"/>
<path d="M155.903 226.301L155.903 192.846L189.454 192.845L189.452 159.202L222.906 159.201L222.904 125.846L256.355 125.848L256.352 92.4794L289.886 92.482L289.88 58.9174L323.431 58.9235L323.428 25.0809L341.928 25.0823L341.929 28.2263L326.573 28.2251L326.575 62.0677L293.024 62.0617L293.03 95.6262L259.497 95.6236L259.499 128.993L226.048 128.99L226.051 162.345L192.592 162.342L192.599 195.989L159.048 195.99L159.047 229.445L140.711 229.444L140.711 226.3L155.903 226.301Z" fill="white"/>
<path d="M172.108 242.506L172.105 209.048L205.66 209.051L205.654 175.404L239.108 175.403L239.106 142.048L272.56 142.054L272.558 108.685L306.088 108.684L306.085 75.1228L339.633 75.1254L339.634 41.2862L358.13 41.2842L358.131 44.4282L342.778 44.4304L342.777 78.2696L309.23 78.267L309.232 111.828L275.702 111.829L275.705 145.198L242.25 145.192L242.253 178.547L208.798 178.548L208.804 212.195L175.25 212.192L175.252 245.65L156.913 245.645L156.913 242.501L172.108 242.506Z" fill="white"/>
<path d="M188.31 258.708L188.311 225.253L221.861 225.252L221.855 191.605L255.314 191.608L255.311 158.253L288.762 158.256L288.76 124.887L322.293 124.889L322.287 91.3247L355.838 91.3307L355.835 57.4881L374.336 57.4896L374.336 60.6335L358.98 60.6323L358.982 94.475L325.431 94.4689L325.434 128.03L291.904 128.031L291.906 161.4L258.455 161.397L258.458 194.752L225 194.75L225.006 228.397L191.455 228.397L191.454 261.852L173.119 261.851L173.118 258.707L188.31 258.708Z" fill="white"/>
<path d="M204.512 274.91L204.512 241.455L238.067 241.458L238.061 207.811L271.515 207.81L271.513 174.455L304.964 174.457L304.965 141.092L338.495 141.091L338.492 107.53L372.04 107.532L372.041 73.6932L390.537 73.6912L390.538 76.8352L375.181 76.834L375.184 110.677L341.633 110.671L341.639 144.235L308.109 144.236L308.108 177.601L274.657 177.599L274.66 210.954L241.205 210.955L241.211 244.602L207.657 244.599L207.656 278.054L189.32 278.052L189.32 274.908L204.512 274.91Z" fill="white"/>
<path d="M220.717 291.115L220.718 257.66L254.269 257.659L254.262 224.012L287.721 224.015L287.718 190.66L321.169 190.663L321.167 157.294L354.697 157.293L354.694 123.732L388.242 123.734L388.242 89.8951L406.743 89.8966L406.743 93.0405L391.387 93.0394L391.386 126.879L357.839 126.876L357.841 160.437L324.311 160.438L324.314 193.807L290.859 193.801L290.865 227.159L257.407 227.157L257.413 260.804L223.858 260.801L223.861 294.259L205.526 294.258L205.525 291.114L220.717 291.115Z" fill="white"/>
<path d="M236.919 307.317L236.919 273.862L270.474 273.865L270.468 240.218L303.922 240.217L303.92 206.862L337.371 206.864L337.368 173.495L370.902 173.498L370.896 139.934L404.447 139.94L404.444 106.097L422.944 106.098L422.945 109.242L407.589 109.241L407.591 143.084L374.04 143.078L374.046 176.642L340.513 176.64L340.515 210.009L307.064 210.006L307.067 243.361L273.612 243.362L273.618 277.009L240.064 277.006L240.063 310.461L221.727 310.46L221.727 307.316L236.919 307.317Z" fill="white"/>
<path d="M236.919 307.317L236.919 273.862L270.474 273.865L270.468 240.218L303.922 240.217L303.92 206.862L337.371 206.864L337.368 173.495L370.902 173.498L370.896 139.934L404.447 139.94L404.444 106.097L422.944 106.098L422.945 109.242L407.589 109.241L407.591 143.084L374.04 143.078L374.046 176.642L340.513 176.64L340.515 210.009L307.064 210.006L307.067 243.361L273.612 243.362L273.618 277.009L240.064 277.006L240.063 310.461L221.727 310.46L221.727 307.316L236.919 307.317Z" fill="white"/>
<path d="M253.124 323.522L253.121 290.063L286.675 290.066L286.669 256.419L320.127 256.422L320.121 223.063L353.576 223.069L353.574 189.7L387.104 189.7L387.101 156.138L420.649 156.141L420.649 122.302L439.15 122.303L439.15 125.447L423.794 125.446L423.793 159.285L390.245 159.283L390.248 192.844L356.718 192.845L356.72 226.213L323.266 226.207L323.268 259.563L289.814 259.563L289.82 293.21L256.265 293.208L256.268 326.666L237.933 326.664L237.932 323.52L253.124 323.522Z" fill="white"/>
</g>
</svg>
